<?xml version="1.0" encoding="UTF-8"?>
<svg version="1.1" xmlns="http://www.w3.org/2000/svg" width="1080" height="1080">
<path d="M0 0 C356.4 0 712.8 0 1080 0 C1080 356.4 1080 712.8 1080 1080 C723.6 1080 367.2 1080 0 1080 C0 723.6 0 367.2 0 0 Z " fill="#30D5C8" transform="translate(0,0)"/>
<path d="M0 0 C0.87564233 -0.00295142 1.75128466 -0.00590285 2.65346161 -0.00894371 C5.61418969 -0.01766805 8.57487887 -0.01921837 11.53561878 -0.02082157 C13.66915394 -0.02555026 15.80268821 -0.03070086 17.93622142 -0.03623921 C23.82001164 -0.05017482 29.70379566 -0.05773722 35.5875982 -0.0642122 C40.62902158 -0.07057473 45.67043473 -0.08064597 50.71185174 -0.09077286 C67.32320889 -0.12412591 83.93457003 -0.1456631 100.54594943 -0.16397271 C104.8694664 -0.16874003 109.19298308 -0.17374877 113.51649976 -0.17877793 C140.34824191 -0.20982225 167.17998654 -0.23644299 194.01174164 -0.25319672 C200.22907675 -0.25713402 206.44641181 -0.26114585 212.66374683 -0.2652216 C213.43618062 -0.26572326 214.2086144 -0.26622493 215.00445527 -0.2667418 C240.05247373 -0.28316242 265.10039455 -0.3216226 290.14836498 -0.3725087 C315.89379636 -0.42471648 341.63917574 -0.45750921 367.38466115 -0.46477425 C371.02008187 -0.46580286 374.6555025 -0.46703919 378.29092312 -0.46839428 C379.00641618 -0.46865232 379.72190925 -0.46891035 380.45908392 -0.46917621 C391.97896033 -0.47387327 403.49870815 -0.49881664 415.01853642 -0.53114571 C426.59570291 -0.56316222 438.17266973 -0.57266429 449.74988546 -0.56071376 C456.02330258 -0.55487339 462.29631592 -0.55884839 468.56967258 -0.5888834 C474.31082609 -0.61614667 480.05128706 -0.61582163 485.79245529 -0.59337295 C487.87123924 -0.59013736 489.95006875 -0.59709159 492.02877661 -0.61517017 C494.85256549 -0.63824324 497.67386993 -0.62437221 500.49760437 -0.60127258 C501.7113703 -0.62448693 501.7113703 -0.62448693 502.94965675 -0.64817026 C509.27452736 -0.53378121 512.99909038 1.85632416 517.56340504 6.1398077 C522.35676027 12.0508215 521.23054125 19.94545303 520.56340504 27.1398077 C519.62793731 33.80115261 518.07244898 40.34010584 516.56340504 46.8898077 C516.15272357 48.73084523 515.74365216 50.57224259 515.33611012 52.41397762 C514.29760273 57.09027203 513.24048844 61.76212631 512.17772388 66.43295956 C510.6853548 73.00872473 509.22433409 79.59156708 507.75890064 86.17337704 C507.2533162 88.44149093 506.74558268 90.70911674 506.23772144 92.97672176 C504.33709477 101.48708752 502.56569432 110.00887172 500.98869801 118.58560848 C499.04989352 129.07439434 496.73778527 139.48430427 494.47893238 149.90787411 C492.89711834 157.21282575 491.33109629 164.52118045 489.76424122 171.82935238 C489.38046363 173.619128 488.99649158 175.40886193 488.61232471 177.19855404 C486.49123996 187.08077118 484.38379891 196.96558482 482.31340504 206.8585577 C482.04274723 208.15063641 482.04274723 208.15063641 481.76662159 209.46881771 C480.91255738 213.54776325 480.0611409 217.62723088 479.21428394 221.70767879 C477.69264159 229.00713645 476.06590057 236.25935088 474.21574879 243.48404598 C473.22747483 247.50741577 472.4838064 251.56358639 471.75090504 255.6398077 C469.56385178 267.41452744 467.03382639 279.10784324 464.49651051 290.81119442 C463.42407644 295.77350357 462.37133051 300.73996739 461.31731129 305.70621395 C460.7212986 308.50855981 460.1249973 311.31084409 459.52858448 314.11310482 C459.14114003 315.93597097 458.75457565 317.75902445 458.36897755 319.58228207 C456.49472872 328.44001091 454.59130783 337.28952493 452.45793629 346.08902645 C452.15734303 347.33256893 451.85674976 348.57611141 451.54704762 349.857337 C448.92285443 358.6144175 443.19675404 364.34739207 435.56340504 369.1398077 C431.84017722 370.8894556 428.92026397 371.39127394 424.8184309 371.39707661 C423.66428861 371.4035255 422.51014632 371.40997439 421.32103002 371.4166187 C420.0575186 371.4135215 418.79400717 371.4104243 417.49220753 371.40723324 C416.13296844 371.41097027 414.7737315 371.41557201 413.41449797 371.42096388 C409.68044411 371.43320205 405.94647979 371.43293249 402.21241045 371.43057513 C398.18512273 371.43016719 394.15786381 371.4412037 390.13058949 371.45069027 C382.24212502 371.46730393 374.35369044 371.47279991 366.46520995 371.47391503 C360.05612034 371.47486499 353.64704062 371.47897269 347.23795414 371.48531628 C329.07664002 371.50292694 310.91534954 371.51215501 292.75402682 371.51065533 C291.77492046 371.51057542 290.7958141 371.5104955 289.78703785 371.51041317 C288.80674003 371.51033141 287.82644221 371.51024965 286.81643839 371.51016541 C270.91432051 371.50935177 255.01229717 371.52850951 239.11020665 371.5566899 C222.79151803 371.58538112 206.47287559 371.59923239 190.1541611 371.59750235 C180.98847594 371.59683732 171.82289 371.60237957 162.65722752 371.62385845 C154.85693487 371.64202047 147.05678645 371.64645853 139.25648187 371.63283961 C135.27430048 371.62628561 131.29239619 371.62627976 127.31024075 371.6435461 C123.66848031 371.65917478 120.02721904 371.65651928 116.38547154 371.63897784 C114.43639746 371.63441457 112.48730852 371.64964467 110.53829324 371.66545713 C109.38936645 371.65625954 108.24043965 371.64706195 107.05669689 371.63758564 C105.56333531 371.63823774 105.56333531 371.63823774 104.03980482 371.63890302 C101.56340504 371.1398077 101.56340504 371.1398077 99.74313033 369.25040495 C98.3554967 366.76784758 98.19482121 365.22518831 98.19231129 362.39371395 C98.17080006 361.02327938 98.17080006 361.02327938 98.14885426 359.62515926 C98.14128101 358.66061825 98.13370777 357.69607723 98.12590504 356.7023077 C97.73894937 343.13011412 95.4582588 332.85148266 86.56340504 322.1398077 C86.04004566 321.49269833 85.51668629 320.84558895 84.97746754 320.1788702 C77.68157916 312.02882904 65.71965901 307.0770288 54.94157887 305.83853817 C52.24521555 305.70338336 49.57541851 305.6720839 46.87590504 305.7023077 C45.9176482 305.70988094 44.95939137 305.71745419 43.97209644 305.72525692 C23.07615769 306.20518041 4.85373412 316.2684463 -10.18659496 330.3273077 C-18.73962551 339.40496651 -24.87898735 349.77188498 -29.01716137 361.50504208 C-30.72715455 366.17613457 -32.12771738 368.62364266 -36.43659496 371.1398077 C-40.2218331 371.75555267 -43.97106293 371.74792555 -47.79987621 371.7413702 C-48.90582638 371.74994045 -50.01177654 371.7585107 -51.15124035 371.76734066 C-53.48876238 371.7788142 -55.82635582 371.77983731 -58.16388988 371.77115536 C-61.72674645 371.76484727 -65.2862599 371.81171618 -68.84870434 371.86246395 C-71.12409079 371.86701162 -73.39948614 371.86841615 -75.67487621 371.8663702 C-76.7334634 371.8847897 -77.79205059 371.90320919 -78.88271618 371.92218685 C-86.07378873 371.83298843 -90.32518332 370.26919271 -95.43659496 365.1398077 C-99.72718957 359.64248337 -99.20457317 352.77307046 -98.43659496 346.1398077 C-97.69217601 341.95908021 -96.80489896 337.81301029 -95.90534496 333.6632452 C-95.66912426 332.55295956 -95.43290356 331.44267391 -95.18952465 330.29874325 C-94.6099673 327.57804346 -94.02554198 324.85848753 -93.43659496 322.1398077 C-94.58550024 322.14349487 -95.73440552 322.14718204 -96.91812611 322.15098095 C-124.1917298 322.23761512 -151.4653185 322.30357112 -178.73903153 322.34406902 C-182.09606463 322.34907184 -185.45309745 322.35424913 -188.81013012 322.35953426 C-189.81261589 322.36110813 -189.81261589 322.36110813 -190.8353539 322.36271378 C-201.65631094 322.38011831 -212.47718297 322.41165623 -223.29808958 322.44841889 C-234.40161151 322.48582703 -245.50509877 322.50774388 -256.60868204 322.51616168 C-262.84531551 322.52138109 -269.08175616 322.53366724 -275.3183279 322.56272793 C-281.1869657 322.5898529 -287.05533101 322.59825848 -292.92402554 322.59223843 C-295.07912202 322.59333996 -297.2342275 322.60131099 -299.38926983 322.6166296 C-302.33023615 322.63651146 -305.27017177 322.6317531 -308.21116161 322.62082577 C-309.06525698 322.63247713 -309.91935235 322.6441285 -310.7993294 322.65613294 C-317.08487307 322.59294487 -320.6903185 320.81566682 -325.26471996 316.3585577 C-325.73393871 315.7913702 -326.20315746 315.2241827 -326.68659496 314.6398077 C-327.16612621 314.0726202 -327.64565746 313.5054327 -328.13971996 312.9210577 C-332.2245017 307.3106346 -332.23764742 301.91466629 -331.43659496 295.1398077 C-329.35652977 288.48561857 -325.42383897 284.85455266 -319.62018871 281.2335577 C-315.87971907 279.3599772 -312.57272452 279.01440005 -308.41650867 279.00952244 C-307.39857656 279.00589809 -306.38064445 279.00227374 -305.33186591 278.99853957 C-303.6570831 279.00014195 -303.6570831 279.00014195 -301.9484663 279.0017767 C-300.76096826 278.99895542 -299.57347022 278.99613414 -298.34998739 278.99322736 C-295.0527353 278.98632783 -291.75553249 278.98385506 -288.45827675 278.98317623 C-284.90263708 278.98133617 -281.34700959 278.97372914 -277.79137707 278.96669674 C-271.62927051 278.95517144 -265.46716669 278.94692698 -259.30505276 278.94057751 C-249.56603472 278.9302522 -239.8270508 278.9096892 -230.0880537 278.88745785 C-226.75631439 278.8799782 -223.42457493 278.87256447 -220.09283543 278.86517048 C-218.84388419 278.86239463 -218.84388419 278.86239463 -217.56970162 278.8595627 C-208.0917423 278.8386357 -198.61377922 278.81980697 -189.13581371 278.80191708 C-187.83616417 278.7994598 -187.83616417 278.7994598 -186.51025908 278.79695289 C-172.46604365 278.77066167 -158.4218256 278.7520213 -144.37759598 278.73532517 C-129.96071119 278.71790908 -115.54387807 278.68906978 -101.12703454 278.65043581 C-92.23330748 278.62702947 -83.33966462 278.61304067 -74.4459065 278.61110817 C-68.35194427 278.60899998 -62.25806582 278.59608078 -56.16414119 278.57462884 C-52.64745841 278.56259301 -49.13094199 278.55545299 -45.61423969 278.56134129 C-41.80227753 278.56760976 -37.99061529 278.55082774 -34.17869091 278.53180599 C-33.06663048 278.53733569 -31.95457006 278.54286538 -30.80881083 278.54856265 C-24.33992351 278.49267243 -19.60989031 278.00119795 -14.60846996 273.4913702 C-9.80552569 267.65922359 -7.94186153 263.35611197 -8.12409496 255.7023077 C-8.79453314 250.20471462 -11.22140521 245.95674213 -15.31159496 242.2648077 C-20.57946945 238.68265305 -25.12358211 237.88994704 -31.43079662 237.90170956 C-32.11082076 237.90015055 -32.79084489 237.89859154 -33.49147582 237.89698529 C-35.7574682 237.89404297 -38.02316977 237.90517957 -40.28913403 237.91617489 C-41.9190931 237.91669944 -43.54905272 237.91626271 -45.17901134 237.91493893 C-48.68371502 237.91360724 -52.18834852 237.91800475 -55.6930418 237.92654324 C-61.24112824 237.93894797 -66.78908505 237.93196364 -72.33716869 237.92111874 C-88.11204529 237.89268367 -103.88681038 237.88019823 -119.66169262 237.90982723 C-128.37830886 237.92603653 -137.09464171 237.92083532 -145.81122851 237.89203095 C-150.4193465 237.87776596 -155.02687461 237.87465441 -159.63496685 237.89825344 C-163.97237276 237.92046352 -168.30886415 237.91478219 -172.64623737 237.88826847 C-174.23202684 237.88351824 -175.81788633 237.88888948 -177.40359592 237.90549946 C-186.62322706 237.99565224 -194.22954121 237.5104529 -201.43659496 231.1398077 C-206.06924887 225.38210839 -207.87744718 219.94884442 -207.78034496 212.58121395 C-206.98232103 206.9134303 -203.73600857 202.02885351 -199.56159496 198.2023077 C-193.93360787 194.48783622 -188.27431412 193.84357786 -181.66329479 193.8882513 C-180.53572967 193.8837961 -180.53572967 193.8837961 -179.38538545 193.87925088 C-176.88292637 193.87165205 -174.38070487 193.87808786 -171.87824535 193.88443661 C-170.07740654 193.8816848 -168.27656895 193.87800375 -166.47573376 193.87346554 C-162.6054581 193.86536906 -158.73524015 193.86318116 -154.86495686 193.86541271 C-148.74185135 193.86825089 -142.61886075 193.85387532 -136.49578381 193.83643246 C-119.08683012 193.78945259 -101.67788464 193.76546341 -84.26887035 193.75894833 C-74.64807623 193.75519595 -65.02741254 193.73715419 -55.40667433 193.70385396 C-49.3231146 193.6836573 -43.23989164 193.68126101 -37.15631211 193.69213414 C-33.36788216 193.69474472 -29.57964758 193.68072061 -25.79126835 193.66205311 C-24.03855508 193.65673946 -22.28580565 193.65821375 -20.5331068 193.66708851 C-7.26556652 194.01165029 -7.26556652 194.01165029 4.06023026 187.76339817 C8.99230012 182.40039706 10.06533887 176.71417248 9.86418629 169.6632452 C9.23998399 164.42643113 7.49073568 160.76300911 3.43449879 157.34683895 C-1.69477355 153.7893041 -5.66382841 152.01468721 -11.9357214 152.01510906 C-13.28834139 152.01152264 -13.28834139 152.01152264 -14.66828704 152.00786376 C-16.14842154 152.0115125 -16.14842154 152.0115125 -17.65845776 152.01523495 C-19.23545228 152.01311972 -19.23545228 152.01311972 -20.84430528 152.01096177 C-24.37866257 152.00730231 -27.9129799 152.0106481 -31.44733715 152.01383114 C-33.97678693 152.01243666 -36.50623648 152.01053754 -39.03568554 152.00817013 C-43.78206213 152.00425302 -48.52843109 152.00184051 -53.27480915 152.00175413 C-62.60392749 152.00155132 -71.93299389 151.98908693 -81.26209545 151.97214413 C-82.7311553 151.96953835 -84.20021517 151.96693954 -85.66927505 151.9643476 C-87.89567974 151.96040917 -90.12208441 151.95646264 -92.34848903 151.95248638 C-100.74178793 151.93754123 -109.1350884 151.92391633 -117.52839184 151.91178036 C-118.29560996 151.9106668 -119.06282808 151.90955324 -119.85329524 151.90840593 C-132.28277419 151.89083532 -144.71222059 151.88796157 -157.14170989 151.88963076 C-169.9065511 151.89091039 -182.67127123 151.87315964 -195.43606591 151.83861279 C-203.30723584 151.81797477 -211.17811566 151.81261622 -219.04930094 151.8269411 C-225.08411154 151.83641056 -231.1185621 151.81977078 -237.15333462 151.79345417 C-239.62685766 151.78680633 -242.10042063 151.7886927 -244.57392788 151.79975224 C-247.95207482 151.81360305 -251.32874181 151.79675077 -254.7067976 151.77231503 C-255.68463105 151.7836704 -256.6624645 151.79502578 -257.66992927 151.80672526 C-265.41953336 151.69779369 -270.29434637 149.2820563 -275.74909496 143.8273077 C-279.3912853 138.02678236 -281.60670878 132.03944433 -280.43659496 125.1398077 C-278.40683078 118.48881941 -274.02720019 114.10029806 -268.43659496 110.1398077 C-265.5603566 109.18106158 -263.77091444 109.01407369 -260.78499031 109.01231575 C-259.82376697 109.0093081 -258.86254364 109.00630045 -257.87219232 109.00320166 C-256.81385032 109.00495204 -255.75550831 109.00670241 -254.66509533 109.00850582 C-253.54252726 109.00639011 -252.41995919 109.00427439 -251.26337391 109.00209457 C-247.48183051 108.99607777 -243.70032032 108.99709592 -239.9187727 108.997962 C-237.21537646 108.99550445 -234.51198324 108.99148489 -231.80858898 108.98743343 C-225.97605363 108.97931642 -220.14352266 108.97437512 -214.3109827 108.97114277 C-205.08762172 108.96564599 -195.86429773 108.94874743 -186.64095592 108.92980099 C-183.48512084 108.92344396 -180.32928565 108.91713553 -177.17345047 108.91082382 C-175.99034221 108.90844818 -175.99034221 108.90844818 -174.78333278 108.90602454 C-165.80211489 108.88808297 -156.82089438 108.87185998 -147.83967113 108.85684872 C-147.01858107 108.85547285 -146.197491 108.85409697 -145.35151941 108.85267941 C-132.05682265 108.83076723 -118.76213541 108.81999772 -105.46742379 108.81247797 C-91.81442804 108.80439972 -78.16151376 108.7810849 -64.50856453 108.7445243 C-56.09011539 108.72252545 -47.6718339 108.71282663 -39.25335748 108.71902464 C-33.47891156 108.72220546 -27.70460848 108.71082813 -21.93020677 108.68813022 C-18.60125684 108.67549419 -15.27289037 108.67144304 -11.94388866 108.68054676 C-8.32793069 108.68943533 -4.71286567 108.6737391 -1.09698009 108.65206051 C0.46711034 108.66472431 0.46711034 108.66472431 2.06279856 108.67764395 C9.63898688 108.5938678 17.06208826 107.35592189 22.81731129 102.0694952 C23.46506519 101.05242489 23.46506519 101.05242489 24.12590504 100.0148077 C24.5809441 99.33160458 25.03598316 98.64840145 25.50481129 97.9444952 C28.5786505 92.70422318 28.10885481 87.09016883 27.56340504 81.1398077 C26.51767556 78.39990513 25.27957158 76.5531669 23.56340504 74.1398077 C23.56340504 73.4798077 23.56340504 72.8198077 23.56340504 72.1398077 C23.02715504 71.8716827 22.49090504 71.6035577 21.93840504 71.3273077 C20.23964064 70.4779255 18.57659539 69.55557522 16.94226933 68.58798599 C12.90951786 66.85955223 9.43137547 66.73168927 5.12657642 66.78145504 C3.87377774 66.77783489 3.87377774 66.77783489 2.59566998 66.77414161 C-0.19555308 66.76954878 -2.986243 66.78619634 -5.77741528 66.8026495 C-7.78175377 66.80345605 -9.78609325 66.80286129 -11.79043102 66.80097103 C-16.10383723 66.79941058 -20.41710355 66.80679215 -24.73048687 66.82081318 C-31.555568 66.84195698 -38.38047844 66.83718284 -45.2055769 66.82775021 C-64.61254126 66.80488195 -84.01940393 66.81677685 -103.42634106 66.85489559 C-114.14695809 66.87572368 -124.86736303 66.87500951 -135.58797622 66.85136062 C-142.36777791 66.83770101 -149.14682786 66.85082354 -155.9265542 66.88395822 C-160.15214978 66.8983351 -164.37741082 66.88763281 -168.60298252 66.86997509 C-170.55644305 66.86680671 -172.50995202 66.87383419 -174.46333027 66.89204121 C-194.10814479 67.06424936 -194.10814479 67.06424936 -201.43659496 60.1398077 C-206.05295369 54.35646239 -207.87768225 48.96668072 -207.78034496 41.58121395 C-206.98232103 35.9134303 -203.73600857 31.02885351 -199.56159496 27.2023077 C-194.17472505 23.64697356 -188.88486823 22.89133138 -182.5205946 22.8613348 C-181.86124525 22.8555424 -181.20189589 22.84975 -180.52256626 22.84378207 C-178.33313237 22.8268991 -176.14391074 22.8239158 -173.95441723 22.82096004 C-172.3770449 22.81165376 -170.79967746 22.80148405 -169.22231579 22.79051876 C-164.95428174 22.76328363 -160.68628058 22.74808863 -156.41818261 22.73509073 C-151.95251566 22.71943175 -147.48691559 22.69265037 -143.0212965 22.6670599 C-134.57130503 22.62032106 -126.12130092 22.58355328 -117.67124647 22.55038702 C-108.04849306 22.51213102 -98.42580691 22.46272998 -88.80311024 22.41240287 C-69.01432151 22.30915583 -49.22549018 22.21987196 -29.43659496 22.1398077 C-29.13418392 21.31012981 -29.13418392 21.31012981 -28.82566357 20.46369076 C-28.55885784 19.74015408 -28.29205212 19.01661739 -28.01716137 18.27115536 C-27.75367901 17.55303677 -27.49019665 16.83491817 -27.21872997 16.09503841 C-24.41337816 9.08204199 -17.77821508 4.73943207 -11.43659496 1.1398077 C-7.60255051 -0.13820712 -3.99520757 -0.00443832 0 0 Z " fill="#FEFEFE" transform="translate(351.43659496307373,324.86019229888916)"/>
<path d="M0 0 C1.48392746 -0.01270432 1.48392746 -0.01270432 2.99783325 -0.02566528 C6.26667158 -0.0490529 9.53503941 -0.05005669 12.80395508 -0.04882812 C15.08213997 -0.05593068 17.36032307 -0.06362982 19.63850403 -0.07189941 C24.4157915 -0.0853498 29.19291373 -0.08691134 33.97021484 -0.08105469 C40.07550621 -0.07517056 46.17999909 -0.10569509 52.28513622 -0.14617157 C56.99252045 -0.1720996 61.69971402 -0.17492108 66.40715981 -0.17127991 C68.65690422 -0.17296763 70.90665777 -0.18257641 73.15633202 -0.20042419 C76.31308722 -0.22270468 79.4682475 -0.21286364 82.625 -0.1953125 C83.54431808 -0.20857574 84.46363617 -0.22183899 85.41081238 -0.23550415 C92.93634852 -0.13890051 99.7343099 1.98394807 105.1356535 7.43975067 C109.7594506 13.02164452 113.30808909 19.46355558 116.92843628 25.72018433 C118.67942432 28.74518969 120.45212307 31.75746067 122.22192383 34.77148438 C122.5671257 35.36060104 122.91232758 35.94971771 123.26799011 36.5566864 C125.79936201 40.86990462 128.39612523 45.13364889 131.07348633 49.35742188 C135.21846799 55.90936875 139.25760736 62.52362146 143.27694702 69.15319824 C144.3820398 70.97591257 145.48806643 72.79805756 146.59423828 74.62011719 C150.10908988 80.41229173 153.61316035 86.21053179 157.09692383 92.02148438 C158.02649902 93.56533813 158.02649902 93.56533813 158.97485352 95.14038086 C160.12351355 97.04848164 161.26776539 98.95924679 162.40649414 100.87329102 C167.12119706 108.68866098 172.0847374 116.09011787 179.19848633 121.91992188 C183.82494656 125.96280126 187.18986534 130.03328482 190.13598633 135.41992188 C190.47500977 136.0309375 190.8140332 136.64195312 191.16333008 137.27148438 C196.11963144 148.00633064 192.73001444 161.22037098 190.19848633 172.16992188 C189.88387198 173.5818507 189.5708509 174.99413532 189.25927734 176.40673828 C188.58649485 179.4512477 187.90671173 182.49408266 187.22290039 185.53613281 C185.46970595 193.37130373 183.8204783 201.22897912 182.15142822 209.08239746 C181.01603093 214.41129454 179.86673414 219.73720367 178.71853638 225.06335449 C177.73338023 229.63543147 176.75483661 234.20879687 175.78587341 238.78433228 C175.13863625 241.83101269 174.48027741 244.87528914 173.82348633 247.91992188 C173.49658813 249.48299072 173.49658813 249.48299072 173.16308594 251.07763672 C170.41175838 263.69199632 166.25457722 273.55979697 155.46801758 281.34570312 C149.07664029 285.3013709 144.73261299 286.5495686 137.18286133 286.51757812 C136.52263977 286.51616318 135.86241821 286.51474823 135.18218994 286.51329041 C133.08340839 286.50771432 130.98473538 286.49516634 128.88598633 286.48242188 C127.45890454 286.47740378 126.03182107 286.47284141 124.60473633 286.46875 C121.11511801 286.45775276 117.62556277 286.44050468 114.13598633 286.41992188 C114.09731445 284.80537109 114.09731445 284.80537109 114.05786133 283.15820312 C113.58526478 269.41496904 111.10891998 257.91773146 103.13598633 246.41992188 C102.41411133 245.36804688 101.69223633 244.31617188 100.94848633 243.23242188 C93.94123406 236.2251696 85.47997373 232.3557017 76.13598633 229.41992188 C75.14598633 229.08992187 74.15598633 228.75992188 73.13598633 228.41992188 C46.86218139 226.41671349 26.89698836 233.23759714 6.74145508 250.46679688 C2.16121877 254.73419743 -1.52611873 259.46329082 -5.05151367 264.60742188 C-5.4435498 265.17025879 -5.83558594 265.7330957 -6.23950195 266.31298828 C-10.35280155 272.5663735 -13.03527387 279.52233918 -15.86401367 286.41992188 C-23.32029051 286.54672441 -30.77628922 286.6342748 -38.23339844 286.69458008 C-40.76996247 286.71972027 -43.3064541 286.75383724 -45.84277344 286.79711914 C-49.48935818 286.85778849 -53.13498499 286.88613761 -56.78198242 286.90820312 C-57.9154863 286.93400955 -59.04899017 286.95981598 -60.21684265 286.98640442 C-68.10844333 286.98921411 -68.10844333 286.98921411 -72.05664062 284.0144043 C-75.8965889 278.50216192 -74.72209453 273.91744713 -73.86401367 267.41992188 C-72.9697768 262.68645274 -71.92109368 257.9987514 -70.82818604 253.30770874 C-69.9016735 249.32705483 -69.00423709 245.33979456 -68.10229492 241.35351562 C-67.9149176 240.52860123 -67.72754028 239.70368683 -67.53448486 238.85377502 C-65.59476549 230.29061726 -63.78306818 221.70207593 -61.98901367 213.10742188 C-61.32269145 209.92245392 -60.65583313 206.73759826 -59.98901367 203.55273438 C-59.81907394 202.74051926 -59.64913422 201.92830414 -59.4740448 201.09147644 C-57.33627779 190.88338532 -55.16196857 180.68306907 -52.98901367 170.48242188 C-52.56468993 168.48982904 -52.14037355 166.49723463 -51.71606445 164.50463867 C-50.85961587 160.48303893 -50.00297505 156.46148018 -49.14624023 152.43994141 C-47.88200076 146.50507276 -46.61890553 140.56996105 -45.35620117 134.63476562 C-45.15039932 133.66742996 -44.94459747 132.7000943 -44.7325592 131.70344543 C-43.69384107 126.8209539 -42.65524428 121.93843656 -41.61669922 117.0559082 C-39.73400927 108.20536487 -37.8506833 99.35496004 -35.96343994 90.50538635 C-35.32920491 87.53092653 -34.6954613 84.5563623 -34.06176758 81.58178711 C-33.22876555 77.67202323 -32.39353995 73.7627434 -31.55688477 69.85375977 C-29.44149129 59.95280674 -27.37389078 50.04445056 -25.37573242 40.11914062 C-24.77313595 37.15093011 -24.16957295 34.18291776 -23.56570435 31.21496582 C-23.18535196 29.33029228 -22.80981455 27.44463973 -22.43942261 25.5579834 C-21.9285973 22.95606665 -21.40182556 20.35783356 -20.87182617 17.75976562 C-20.72738571 16.99951584 -20.58294525 16.23926605 -20.43412781 15.45597839 C-19.26905767 9.86225449 -17.42006231 5.49543839 -12.84382629 1.77952576 C-8.55543701 -0.1771445 -4.6628167 -0.01470227 0 0 Z " fill="#FEFEFE" transform="translate(886.864013671875,402.580078125)"/>
<path d="M0 0 C1.07507813 -0.01836914 1.07507813 -0.01836914 2.171875 -0.03710938 C14.88531623 -0.07153205 26.17123606 5.0325898 35.28125 13.77734375 C44.09409304 23.33208429 47.17557652 34.85665622 46.9375 47.59375 C45.59224626 63.06416803 39.59160285 76.33224866 29.625 88.1875 C28.71427734 89.39986328 28.71427734 89.39986328 27.78515625 90.63671875 C17.69912818 102.5466217 1.17900784 111.83721427 -14.31445312 113.50366211 C-17.32109566 113.65850321 -20.3020161 113.70584778 -23.3125 113.6875 C-24.36356934 113.68395508 -25.41463867 113.68041016 -26.49755859 113.67675781 C-34.46217296 113.50621991 -40.50260296 112.43257357 -47.375 108.1875 C-47.98988281 107.83042969 -48.60476563 107.47335937 -49.23828125 107.10546875 C-50.8125 106.125 -50.8125 106.125 -53.375 104.1875 C-54.2 103.630625 -55.025 103.07375 -55.875 102.5 C-64.29623788 94.71035496 -68.95103802 83.83512195 -69.578125 72.5234375 C-69.79171515 54.47506958 -64.5839461 38.78608224 -52.375 25.1875 C-51.65828125 24.37796875 -50.9415625 23.5684375 -50.203125 22.734375 C-36.80328323 8.45872658 -19.74743628 0.01756889 0 0 Z " fill="#FDFEFE" transform="translate(944.375,641.8125)"/>
<path d="M0 0 C1.07507813 -0.01836914 1.07507813 -0.01836914 2.171875 -0.03710938 C13.54784337 -0.06791073 24.6431672 4.14836292 33.3515625 11.484375 C38.66599802 17.065421 41.95880271 22.99548882 44.625 30.1875 C45.058125 31.280625 45.49125 32.37375 45.9375 33.5 C49.29267592 51.49594356 43.63687253 68.42643288 33.75 83.36328125 C22.82137306 97.88790859 6.77423568 109.84172786 -11.375 113.1875 C-23.74118182 114.57144843 -36.48783411 114.89002232 -47.375 108.1875 C-48.18710937 107.74148438 -48.99921875 107.29546875 -49.8359375 106.8359375 C-60.22135541 100.65989164 -65.68064801 90.67792751 -68.92138672 79.26293945 C-72.37097234 63.47987844 -67.85737887 47.41601364 -59.59326172 33.99951172 C-56.12926359 28.84724836 -51.80956557 24.5013539 -47.375 20.1875 C-46.59898437 19.42566406 -45.82296875 18.66382813 -45.0234375 17.87890625 C-32.52594941 6.19839176 -17.07893075 0.01519478 0 0 Z " fill="#FDFEFE" transform="translate(394.375,641.8125)"/>
<path d="M0 0 C1.40242195 -0.01441132 1.40242195 -0.01441132 2.83317566 -0.02911377 C4.34721733 -0.03548859 4.34721733 -0.03548859 5.8918457 -0.04199219 C7.45513359 -0.0505423 7.45513359 -0.0505423 9.05000305 -0.05926514 C11.25825994 -0.06871646 13.46653094 -0.07524964 15.67480469 -0.07910156 C19.03711947 -0.08877938 22.39881574 -0.11979056 25.76098633 -0.15136719 C27.90876917 -0.15790025 30.05655637 -0.16314953 32.2043457 -0.16699219 C33.20358566 -0.17933899 34.20282562 -0.19168579 35.23234558 -0.20440674 C42.80365265 -0.18050642 48.23782195 1.04611983 54.63012695 5.34863281 C59.22608922 10.04904877 61.5710086 14.46289213 61.88012695 21.09863281 C61.60887245 26.97581368 59.94237191 32.27500858 55.98950195 36.72753906 C49.08460298 42.81475263 42.96927305 43.61971209 34.13793945 43.59472656 C32.51443069 43.60258934 32.51443069 43.60258934 30.85812378 43.61061096 C28.57363745 43.6170206 26.28911807 43.61570792 24.00463867 43.60717773 C20.5237294 43.59867823 17.04446762 43.62742913 13.5637207 43.65917969 C11.33846078 43.66079221 9.11319796 43.6602132 6.88793945 43.65722656 C5.33757492 43.67407753 5.33757492 43.67407753 3.75588989 43.69126892 C-3.6211102 43.62073015 -8.86505209 42.33605864 -14.64331055 37.45019531 C-19.66626092 31.26586912 -21.17513084 25.89127968 -20.9909668 17.90722656 C-20.12393128 11.49116375 -16.45837612 7.58820531 -11.49487305 3.72363281 C-7.68457046 1.00304711 -4.67246157 0.03881576 0 0 Z " fill="#FCFEFE" transform="translate(50.619873046875,347.8388671875)"/>
<path d="M0 0 C1.03653214 -0.0066568 2.07306427 -0.0133136 3.14100647 -0.02017212 C5.32535028 -0.03026242 7.5097247 -0.03499027 9.6940918 -0.03466797 C13.02119003 -0.03904413 16.34696389 -0.0754117 19.67382812 -0.11328125 C21.80338091 -0.11914969 23.93293996 -0.1231189 26.0625 -0.125 C27.04919174 -0.13937103 28.03588348 -0.15374207 29.05247498 -0.16854858 C36.42498683 -0.12017465 41.82053858 1.40732977 47.375 6.37109375 C47.92285156 7.04011719 48.47070312 7.70914063 49.03515625 8.3984375 C49.60105469 9.07003906 50.16695313 9.74164062 50.75 10.43359375 C54.24455671 15.36648974 53.61083021 21.56639596 53.09765625 27.3359375 C51.41472577 33.44923317 47.44879804 38.01526848 42.09765625 41.3359375 C36.50523587 43.74644422 31.13077205 43.69178359 25.14453125 43.7421875 C24.08913147 43.75358765 23.03373169 43.76498779 21.9463501 43.7767334 C19.71736631 43.79558229 17.48832744 43.80868102 15.25927734 43.81640625 C11.87236855 43.83579602 8.48790111 43.89787169 5.1015625 43.9609375 C2.92839972 43.97400204 0.75521971 43.98450123 -1.41796875 43.9921875 C-2.92003876 44.02922791 -2.92003876 44.02922791 -4.45245361 44.0670166 C-11.86249404 44.02073006 -17.12262979 42.03185982 -22.90234375 37.3359375 C-27.55689423 31.61350644 -29.34287499 26.12062003 -29.24609375 18.77734375 C-28.44806981 13.1095601 -25.20175736 8.22498331 -21.02734375 4.3984375 C-14.35911841 -0.00259122 -7.76111153 0.01747063 0 0 Z " fill="#FDFEFE" transform="translate(28.90234375,518.6640625)"/>
<path d="M0 0 C5.56269821 3.34507313 9.33170133 8.26114395 11.33203125 14.40234375 C12.54126698 23.42942911 10.7055857 31.7562501 5.34375 39.140625 C0.93405104 44.28146576 -3.58125462 48.40167907 -9.66796875 51.40234375 C-10.28027344 51.71945312 -10.89257812 52.0365625 -11.5234375 52.36328125 C-18.04458695 55.29443709 -25.33766912 55.51301602 -32.2265625 53.74609375 C-38.5644435 51.26651805 -42.80615235 47.19017712 -45.80078125 41.09765625 C-48.04985534 34.10729082 -47.80241831 25.83648226 -44.73046875 19.15234375 C-35.38429692 3.27951561 -18.29083131 -8.09405291 0 0 Z " fill="#32D5C8" transform="translate(950.66796875,672.59765625)"/>
<path d="M0 0 C5.5956565 3.1492248 9.20143106 6.96536212 12.0625 12.6875 C14.20079446 23.80663119 11.60124496 31.57030855 5.6875 40.9375 C-0.00796987 48.57134407 -7.44741386 51.98247129 -16.3125 54.9375 C-24.00669694 55.64222374 -30.77653126 55.35089671 -37.3125 50.9375 C-42.41283877 46.4075217 -44.79809868 41.74604826 -45.71875 34.9296875 C-46.03675362 24.35606719 -42.80097889 16.40518488 -35.6875 8.5625 C-26.20174333 -0.22604439 -12.31374266 -5.69044168 0 0 Z " fill="#31D5C8" transform="translate(399.3125,672.0625)"/>
</svg>
