<?xml version="1.0" encoding="UTF-8"?>
<svg version="1.1" xmlns="http://www.w3.org/2000/svg" width="256" height="144">
<path d="M0 0 C7.58026617 6.39434715 12.65565717 12.82300323 15.6875 22.3125 C16.1825 23.7975 16.1825 23.7975 16.6875 25.3125 C18.61712037 45.81076224 5.19367735 63.69053721 -7.1875 78.875 C-11.66837023 84.26769271 -16.30900299 89.39678364 -21.3125 94.3125 C-26.22288601 92.91080799 -28.7986728 89.9422122 -31.9375 86.125 C-32.45602539 85.50496094 -32.97455078 84.88492188 -33.50878906 84.24609375 C-62.52771779 49.14851875 -62.52771779 49.14851875 -61.62890625 28.96875 C-60.25977525 17.47481078 -54.40443202 7.50355471 -45.3125 0.3125 C-31.23457598 -8.37387865 -14.12561095 -9.96285723 0 0 Z M-35.6875 23.5 C-38.47988214 28.33296909 -38.75138576 33.07418263 -37.6875 38.5 C-35.58727853 42.79590755 -33.15609028 46.21631118 -29 48.6875 C-23.97337467 49.85648264 -19.9410848 49.88729464 -15.125 48.1875 C-10.90138854 45.37175903 -8.05244174 42.88078614 -6.640625 37.98046875 C-5.81402872 32.59932697 -6.31370266 28.71874458 -9.06640625 24.00390625 C-11.62373717 20.53267024 -14.26149308 18.66283564 -18.3125 17.3125 C-25.95298806 16.67579266 -29.94571297 18.21151195 -35.6875 23.5 Z " fill="#F43C25" transform="translate(150.3125,22.6875)"/>
<path d="M0 0 C6.70708955 3.62182836 6.70708955 3.62182836 8.375 7.875 C8.6225 8.803125 8.87 9.73125 9.125 10.6875 C9.785 10.6875 10.445 10.6875 11.125 10.6875 C13.39633284 17.64345683 14.25661223 23.76498876 11.125 30.6875 C10.135 31.0175 9.145 31.3475 8.125 31.6875 C8.70084432 29.30185923 9.34727595 27.02067216 10.125 24.6875 C9.465 24.6875 8.805 24.6875 8.125 24.6875 C8.07601562 24.10742188 8.02703125 23.52734375 7.9765625 22.9296875 C7.33624912 16.1193677 7.33624912 16.1193677 5.125 9.6875 C3.18881575 9.01593384 3.18881575 9.01593384 1.125 8.6875 C0.0989266 7.37412604 -0.90227325 6.04085895 -1.875 4.6875 C-8.33583617 2.53388794 -13.01278621 3.81621161 -18.875 6.6875 C-18.875 6.0275 -18.875 5.3675 -18.875 4.6875 C-20.855 5.0175 -22.835 5.3475 -24.875 5.6875 C-24.215 5.3575 -23.555 5.0275 -22.875 4.6875 C-22.875 4.0275 -22.875 3.3675 -22.875 2.6875 C-15.41948234 -1.34640327 -8.16015363 -3.27801043 0 0 Z " fill="#CC2B20" transform="translate(136.875,35.3125)"/>
<path d="M0 0 C0.66 0.33 1.32 0.66 2 1 C1.98428955 1.59014893 1.9685791 2.18029785 1.95239258 2.78833008 C1.89002061 5.46295586 1.85100343 8.13742864 1.8125 10.8125 C1.78736328 11.74126953 1.76222656 12.67003906 1.73632812 13.62695312 C1.72666016 14.51962891 1.71699219 15.41230469 1.70703125 16.33203125 C1.6913208 17.15421143 1.67561035 17.9763916 1.65942383 18.82348633 C2.08105546 21.51799961 3.10331838 22.13332026 5 24 C5 25.32 5 26.64 5 28 C12.26026753 30.17808026 19.45326965 30.59722507 27 31 C26.67 31.99 26.34 32.98 26 34 C20.35590541 35.88136486 13.73055582 35.52814822 8 34 C8 33.34 8 32.68 8 32 C7.41605469 31.74992187 6.83210938 31.49984375 6.23046875 31.2421875 C3.70307949 29.83463972 2.20696046 28.30301311 0.3125 26.125 C-0.28949219 25.44695312 -0.89148438 24.76890625 -1.51171875 24.0703125 C-4.53442834 19.86549338 -4.07168524 16.06118117 -3.75 11 C-3.68296875 9.783125 -3.6159375 8.56625 -3.546875 7.3125 C-2.99008429 3.93993911 -2.29376586 2.4664149 0 0 Z " fill="#D3291C" transform="translate(110,42)"/>
<path d="M0 0 C1.65234375 1.09375 1.65234375 1.09375 3.83984375 2.84375 C0.78720711 3.82495464 -1.10751961 3.82495464 -4.16015625 2.84375 C-4.16015625 2.18375 -4.16015625 1.52375 -4.16015625 0.84375 C-6.51383338 0.1559264 -6.51383338 0.1559264 -9.16015625 -0.15625 C-10.15015625 0.50375 -11.14015625 1.16375 -12.16015625 1.84375 C-14.48403572 2.23762788 -16.81809374 2.57861085 -19.16015625 2.84375 C-19.16015625 1.85375 -19.16015625 0.86375 -19.16015625 -0.15625 C-24.76578667 -0.98247671 -29.58304977 -1.22420656 -35.16015625 -0.15625 C-35.16015625 0.50375 -35.16015625 1.16375 -35.16015625 1.84375 C-37.14015625 1.84375 -39.12015625 1.84375 -41.16015625 1.84375 C-31.78856486 -9.55236636 -11.22661833 -6.00918449 0 0 Z " fill="#EF4431" transform="translate(148.16015625,21.15625)"/>
<path d="M0 0 C0.99 0.66 1.98 1.32 3 2 C1.41326958 6.87285851 -1.37323195 10.53366204 -4.4375 14.5625 C-5.23124023 15.61171631 -5.23124023 15.61171631 -6.04101562 16.68212891 C-19.66411804 34.44804754 -19.66411804 34.44804754 -26 37 C-29.24299151 34.61042731 -31.50902342 32.7952131 -33 29 C-31.68 28.67 -30.36 28.34 -29 28 C-28.67 29.65 -28.34 31.3 -28 33 C-26.35 33.33 -24.7 33.66 -23 34 C-22.67 32.35 -22.34 30.7 -22 29 C-20.35 28.67 -18.7 28.34 -17 28 C-16.67 26.68 -16.34 25.36 -16 24 C-15.34 24 -14.68 24 -14 24 C-14 22.68 -14 21.36 -14 20 C-13.34 20 -12.68 20 -12 20 C-12 19.01 -12 18.02 -12 17 C-10.1875 14.8125 -10.1875 14.8125 -8 13 C-7.01 13 -6.02 13 -5 13 C-5 11.68 -5 10.36 -5 9 C-4.34 9 -3.68 9 -3 9 C-3 8.01 -3 7.02 -3 6 C-2.34 6 -1.68 6 -1 6 C-0.67 4.02 -0.34 2.04 0 0 Z " fill="#E6756A" transform="translate(153,80)"/>
<path d="M0 0 C0.66 0 1.32 0 2 0 C5.16727335 5.1468192 5.35050464 9.158256 5 15 C5.66 15 6.32 15 7 15 C5.68891403 23.07352941 5.68891403 23.07352941 3.1875 26.4375 C0.86975209 28.09303422 -1.30328181 29.10109394 -4 30 C-4 29.67 -4 29.34 -4 29 C-4.845625 28.96261719 -5.69125 28.92523438 -6.5625 28.88671875 C-13.31064379 28.49563314 -18.82797163 27.78346377 -25 25 C-24.67 23.68 -24.34 22.36 -24 21 C-23.236875 21.639375 -22.47375 22.27875 -21.6875 22.9375 C-17.37788582 26.24487832 -13.28581909 26.55165095 -8 26 C-3.33882597 24.29687872 -0.48427576 22.32448003 2 18 C3.71312997 11.19441518 2.91351379 6.29318979 0 0 Z " fill="#D5625B" transform="translate(140,45)"/>
<path d="M0 0 C2.57343171 1.07918104 4.66603411 2.44402274 7 4 C7 4.66 7 5.32 7 6 C7.66 6 8.32 6 9 6 C11.27133284 12.95595683 12.13161223 19.07748876 9 26 C8.01 26.33 7.02 26.66 6 27 C6.57584432 24.61435923 7.22227595 22.33317216 8 20 C7.34 20 6.68 20 6 20 C5.95101562 19.41992188 5.90203125 18.83984375 5.8515625 18.2421875 C5.21124912 11.4318677 5.21124912 11.4318677 3 5 C0.98491642 4.26676204 0.98491642 4.26676204 -1 4 C-1.33 3.01 -1.66 2.02 -2 1 C-1.34 0.67 -0.68 0.34 0 0 Z " fill="#CE291D" transform="translate(139,40)"/>
<path d="M0 0 C4.6 2.2 4.6 2.2 6 5 C4.7625 4.505 4.7625 4.505 3.5 4 C-2.09804381 2.40055891 -6.65156237 1.98443427 -11.8125 4.75 C-16.41358445 7.95942572 -16.41358445 7.95942572 -18.46484375 12.97265625 C-19.30497728 18.47600283 -18.6360002 22.70705817 -17 28 C-18.97338867 26.78735352 -18.97338867 26.78735352 -21 25 C-21.4699707 22.85522461 -21.4699707 22.85522461 -21.42578125 20.40234375 C-21.41740234 19.51869141 -21.40902344 18.63503906 -21.40039062 17.72460938 C-21.37138672 16.80486328 -21.34238281 15.88511719 -21.3125 14.9375 C-21.30283203 14.01388672 -21.29316406 13.09027344 -21.28320312 12.13867188 C-21.16894605 5.3378921 -21.16894605 5.3378921 -20 3 C-17.30114269 2.42577504 -14.76207303 2 -12 2 C-10.9171875 1.505 -10.9171875 1.505 -9.8125 1 C-6.31463723 -0.24368454 -3.69333293 -0.32976187 0 0 Z " fill="#DE8179" transform="translate(132,38)"/>
<path d="M0 0 C1.30674059 3.65195054 0.62873661 5.95714607 -0.4375 9.625 C-2.55460511 18.06455082 -2.26204057 26.35266113 -2 35 C-5.88728257 31.11271743 -6.1556962 25.95909439 -6.3125 20.6875 C-6.16822603 13.19555867 -4.33352406 6.19074866 0 0 Z " fill="#E77D71" transform="translate(95,34)"/>
<path d="M0 0 C5.08918797 5.78316815 5.45994812 12.48666627 5.3125 19.88671875 C4.38771535 29.09988579 -0.4304206 37.1250915 -5 45 C-6.24546405 42.50907189 -5.7767578 41.58919267 -5 39 C-4.34 39 -3.68 39 -3 39 C-2.505 36.03 -2.505 36.03 -2 33 C-1.34 33 -0.68 33 0 33 C0.495 28.545 0.495 28.545 1 24 C1.66 24 2.32 24 3 24 C3.495 19.545 3.495 19.545 4 15 C3.34 15 2.68 15 2 15 C1.93941406 14.41992188 1.87882813 13.83984375 1.81640625 13.2421875 C1.33983439 8.79907137 0.78991334 4.40094577 0 0 Z " fill="#EA8A82" transform="translate(162,37)"/>
<path d="M0 0 C0.99 0 1.98 0 3 0 C3.26554687 0.78246094 3.53109375 1.56492187 3.8046875 2.37109375 C4.15789062 3.38300781 4.51109375 4.39492187 4.875 5.4375 C5.39707031 6.95150391 5.39707031 6.95150391 5.9296875 8.49609375 C6.74055093 11.13971751 6.74055093 11.13971751 9 12 C9.1546875 12.86625 9.1546875 12.86625 9.3125 13.75 C10.30878976 17.01058468 12.59453129 18.65620997 15 21 C15 21.66 15 22.32 15 23 C15.99 23.33 16.98 23.66 18 24 C19.1875 26.5625 19.1875 26.5625 20 29 C19.01 29 18.02 29 17 29 C11.61661253 23.20250581 7.38775013 16.26498206 3.4375 9.4375 C3.09114502 8.84243652 2.74479004 8.24737305 2.38793945 7.63427734 C0.83225942 4.86199105 0 3.23358138 0 0 Z " fill="#EA9288" transform="translate(93,69)"/>
<path d="M0 0 C7.48291572 6.15034169 7.48291572 6.15034169 10 10 C9.67 10.66 9.34 11.32 9 12 C5.42332038 10.33088285 2.71711407 8.84061925 0 6 C-2.09989652 4.82425289 -2.09989652 4.82425289 -4 4 C-2.68 3.67 -1.36 3.34 0 3 C0 2.01 0 1.02 0 0 Z " fill="#E75440" transform="translate(152,25)"/>
<path d="M0 0 C0 0.33 0 0.66 0 1 C-0.68964844 1.12117188 -1.37929687 1.24234375 -2.08984375 1.3671875 C-8.09799013 2.43859906 -14.05175157 3.63482823 -20 5 C-20 5.66 -20 6.32 -20 7 C-21.98 7 -23.96 7 -26 7 C-20.25597337 0.0151035 -8.40902545 -0.68335196 0 0 Z " fill="#F1AA9F" transform="translate(133,16)"/>
<path d="M0 0 C6.83018485 0.37945471 12.18390736 2.36069057 18 6 C18.33 6.66 18.66 7.32 19 8 C16.36 7.67 13.72 7.34 11 7 C11 6.34 11 5.68 11 5 C10.484375 4.896875 9.96875 4.79375 9.4375 4.6875 C6.13973565 3.75736134 3.13366668 2.38604488 0 1 C0 0.67 0 0.34 0 0 Z " fill="#EC8B7C" transform="translate(133,17)"/>
<path d="M0 0 C0.66 0 1.32 0 2 0 C1.96519531 1.04800781 1.93039063 2.09601562 1.89453125 3.17578125 C1.86639063 4.55467147 1.83909076 5.93357902 1.8125 7.3125 C1.78736328 8.00279297 1.76222656 8.69308594 1.73632812 9.40429688 C1.61302112 13.44142301 1.61302112 13.44142301 3.51171875 16.85546875 C4.00285156 17.23316406 4.49398437 17.61085938 5 18 C5 18.66 5 19.32 5 20 C4.01 20 3.02 20 2 20 C1.67 19.01 1.34 18.02 1 17 C0.34 16.67 -0.32 16.34 -1 16 C-1.02712153 14.083412 -1.04645097 12.1667127 -1.0625 10.25 C-1.07410156 9.18265625 -1.08570312 8.1153125 -1.09765625 7.015625 C-1.01510087 4.46631499 -0.74617558 2.42066409 0 0 Z " fill="#BB342C" transform="translate(110,48)"/>
<path d="M0 0 C5.91035431 6.71631172 5.24950786 14.55831753 5 23 C4.67 23 4.34 23 4 23 C4 20.36 4 17.72 4 15 C3.34 15 2.68 15 2 15 C1.93941406 14.41992188 1.87882813 13.83984375 1.81640625 13.2421875 C1.33983439 8.79907137 0.78991334 4.40094577 0 0 Z " fill="#EEA697" transform="translate(162,37)"/>
<path d="M0 0 C0.33 0 0.66 0 1 0 C1 1.65 1 3.3 1 5 C0.34 5 -0.32 5 -1 5 C-1.33 6.98 -1.66 8.96 -2 11 C-2.66 11 -3.32 11 -4 11 C-4.33 12.98 -4.66 14.96 -5 17 C-5.33 17 -5.66 17 -6 17 C-6.29950444 13.94505467 -6.43004861 11.04617769 -6 8 C-3.5625 5.125 -3.5625 5.125 -1 3 C-0.67 2.01 -0.34 1.02 0 0 Z " fill="#EA4133" transform="translate(161,65)"/>
<path d="M0 0 C4 0 4 0 6.25 2.1875 C8.11375268 5.18281681 8.39344358 6.55736871 8 10 C6.33333333 8.33333333 4.66666667 6.66666667 3 5 C2.401875 4.443125 1.80375 3.88625 1.1875 3.3125 C0 2 0 2 0 0 Z " fill="#E77768" transform="translate(112,99)"/>
<path d="M0 0 C0.928125 0.639375 1.85625 1.27875 2.8125 1.9375 C8.3767789 5.53791576 13.63640042 5.56059993 20 4.5 C20.66 4.335 21.32 4.17 22 4 C21.67 4.66 21.34 5.32 21 6 C13.62617707 8.45794098 6.92742398 7.0788551 0 4 C0 2.68 0 1.36 0 0 Z " fill="#E69692" transform="translate(115,66)"/>
<path d="M0 0 C2 3.75 2 3.75 2 6 C2.66 6.66 3.32 7.32 4 8 C4.625 10.625 4.625 10.625 5 13 C4.01 12.67 3.02 12.34 2 12 C2 10.68 2 9.36 2 8 C1.01 7.67 0.02 7.34 -1 7 C-1.33 5.02 -1.66 3.04 -2 1 C-1.34 0.67 -0.68 0.34 0 0 Z " fill="#EA4234" transform="translate(100,73)"/>
<path d="M0 0 C0.66 0.33 1.32 0.66 2 1 C1.1875 2.9375 1.1875 2.9375 0 5 C-0.99 5.33 -1.98 5.66 -3 6 C-3.73323796 8.01508358 -3.73323796 8.01508358 -4 10 C-5.65 10.33 -7.3 10.66 -9 11 C-7.59155282 7.78475695 -5.89655214 5.67816132 -3.375 3.25 C-2.74335937 2.63640625 -2.11171875 2.0228125 -1.4609375 1.390625 C-0.73777344 0.70226562 -0.73777344 0.70226562 0 0 Z " fill="#E88578" transform="translate(105,23)"/>
<path d="M0 0 C0.66 0 1.32 0 2 0 C2.19118486 4.77962147 1.98834962 8.60470084 0 13 C-0.99 13.33 -1.98 13.66 -3 14 C-2.85691406 13.44828125 -2.71382812 12.8965625 -2.56640625 12.328125 C-1.9544691 9.81285231 -1.43873189 7.28957492 -0.9375 4.75 C-0.67259766 3.41195312 -0.67259766 3.41195312 -0.40234375 2.046875 C-0.26957031 1.37140625 -0.13679687 0.6959375 0 0 Z " fill="#D72A1B" transform="translate(148,53)"/>
<path d="M0 0 C0.268125 0.639375 0.53625 1.27875 0.8125 1.9375 C1.88667752 4.33131686 1.88667752 4.33131686 5 5 C6.1875 7.5625 6.1875 7.5625 7 10 C6.01 10 5.02 10 4 10 C0.9919792 6.9919792 0.4710644 4.14536674 0 0 Z " fill="#E47266" transform="translate(106,88)"/>
<path d="M0 0 C0.66 0 1.32 0 2 0 C4.20914 3.31371 4.22481553 4.3446021 4.125 8.1875 C4.10695312 9.08855469 4.08890625 9.98960938 4.0703125 10.91796875 C4.03550781 11.94857422 4.03550781 11.94857422 4 13 C3.34 13 2.68 13 2 13 C1.93941406 12.39671875 1.87882813 11.7934375 1.81640625 11.171875 C1.69072266 9.97304688 1.69072266 9.97304688 1.5625 8.75 C1.48128906 7.96109375 1.40007812 7.1721875 1.31640625 6.359375 C1.02365007 4.17635361 0.57935581 2.1226818 0 0 Z " fill="#B8362F" transform="translate(143,47)"/>
<path d="M0 0 C1.65 0.33 3.3 0.66 5 1 C3.38405168 3.04119788 1.7143618 5.04072937 0 7 C-0.66 7 -1.32 7 -2 7 C-1.34 4.69 -0.68 2.38 0 0 Z " fill="#EB4231" transform="translate(97,33)"/>
<path d="M0 0 C0.66 0.33 1.32 0.66 2 1 C-0.20696535 5.41393071 -2.66062248 7.64950384 -7 10 C-7.99 9.67 -8.98 9.34 -10 9 C-4.25 5 -4.25 5 -2 5 C-1.34 3.35 -0.68 1.7 0 0 Z " fill="#E33721" transform="translate(146,66)"/>
<path d="M0 0 C5.94 0.99 5.94 0.99 12 2 C12 2.66 12 3.32 12 4 C8.7 4 5.4 4 2 4 C2 3.34 2 2.68 2 2 C1.34 2 0.68 2 0 2 C0 1.34 0 0.68 0 0 Z " fill="#C0322A" transform="translate(119,71)"/>
<path d="M0 0 C0.33 0 0.66 0 1 0 C1.19294408 4.82360189 0.75747614 8.49646738 -1 13 C-1.66 13 -2.32 13 -3 13 C-2.67 10.36 -2.34 7.72 -2 5 C-1.34 5 -0.68 5 0 5 C0 3.35 0 1.7 0 0 Z " fill="#E57E70" transform="translate(165,56)"/>
<path d="M0 0 C2.0625 0.75 2.0625 0.75 4 2 C4.33 2.99 4.66 3.98 5 5 C4.34 5.66 3.68 6.32 3 7 C3 6.34 3 5.68 3 5 C2.360625 4.896875 1.72125 4.79375 1.0625 4.6875 C0.381875 4.460625 -0.29875 4.23375 -1 4 C-1.33 3.01 -1.66 2.02 -2 1 C-1.34 0.67 -0.68 0.34 0 0 Z " fill="#CA4940" transform="translate(139,40)"/>
<path d="M0 0 C2.375 0.625 2.375 0.625 5 2 C6.81599324 5.79707677 7.18650531 8.02778658 6 12 C4 8 2 4 0 0 Z " fill="#DF4836" transform="translate(157,35)"/>
<path d="M0 0 C-0.33 0.99 -0.66 1.98 -1 3 C-1.99 3 -2.98 3 -4 3 C-4 3.66 -4 4.32 -4 5 C-5.98 5.33 -7.96 5.66 -10 6 C-9.34 5.67 -8.68 5.34 -8 5 C-8 4.34 -8 3.68 -8 3 C-2.25 0 -2.25 0 0 0 Z " fill="#D42A19" transform="translate(122,35)"/>
<path d="M0 0 C2.5 2.3125 2.5 2.3125 5 5 C5 5.99 5 6.98 5 8 C3.0625 7.375 3.0625 7.375 1 6 C0.25 2.875 0.25 2.875 0 0 Z " fill="#EB897C" transform="translate(156,29)"/>
<path d="M0 0 C0.309375 0.94875 0.61875 1.8975 0.9375 2.875 C1.87394742 5.86080408 1.87394742 5.86080408 3 8 C-0.82946843 6.54744301 -2.12050295 4.57104439 -4 1 C-1 0 -1 0 0 0 Z " fill="#F1998D" transform="translate(124,108)"/>
<path d="M0 0 C0.66 0 1.32 0 2 0 C1.6875 2.875 1.6875 2.875 1 6 C0.01 6.66 -0.98 7.32 -2 8 C-2 6.35 -2 4.7 -2 3 C-1.34 3 -0.68 3 0 3 C0 2.01 0 1.02 0 0 Z " fill="#E35D4D" transform="translate(141,97)"/>
<path d="M0 0 C-0.99 0.33 -1.98 0.66 -3 1 C-3 1.66 -3 2.32 -3 3 C-4.98 3 -6.96 3 -9 3 C-6.38997624 -0.48003168 -4.1689578 -0.27793052 0 0 Z " fill="#E98071" transform="translate(116,20)"/>
</svg>
